<svg width="92" height="78" viewBox="0 0 92 78" fill="none" xmlns="http://www.w3.org/2000/svg">
<path d="M92 9.75V68.25C92 70.9313 91.0999 73.2274 89.2998 75.1384C87.4966 77.0461 85.33 78 82.8 78H9.2C6.67 78 4.50493 77.0461 2.7048 75.1384C0.9016 73.2274 0 70.9313 0 68.25V9.75C0 7.06875 0.9016 4.77425 2.7048 2.8665C4.50493 0.955499 6.67 0 9.2 0H82.8C85.33 0 87.4966 0.955499 89.2998 2.8665C91.0999 4.77425 92 7.06875 92 9.75ZM9.2 19.5H82.8V9.75H9.2V19.5ZM9.2 39V68.25H82.8V39H9.2ZM9.2 68.25V9.75V68.25Z" fill="#65350D"/>
</svg>
