<svg width="66" height="52" viewBox="0 0 66 52" fill="none" xmlns="http://www.w3.org/2000/svg">
<g clip-path="url(#clip0_21_298)">
<path d="M11.9986 51.0496V47.654C11.9986 46.352 11.2061 45.5033 9.84768 45.5033C9.1686 45.5033 8.43281 45.7297 7.92337 46.4655C7.52737 45.8429 6.96147 45.5033 6.11249 45.5033C5.54634 45.5033 4.9807 45.673 4.52772 46.2956V45.6165H3.3392V51.0496H4.52772V48.05C4.52772 47.0881 5.03716 46.6351 5.82967 46.6351C6.62167 46.6351 7.01819 47.1445 7.01819 48.05V51.0496H8.2067V48.05C8.2067 47.0881 8.77234 46.6351 9.50814 46.6351C10.3007 46.6351 10.6967 47.1445 10.6967 48.05V51.0496H11.9986ZM29.5997 45.6165H27.6757V43.9753H26.4872V45.6165H25.4118V46.6916H26.4869V49.182C26.4869 50.4273 26.9963 51.1628 28.3548 51.1628C28.8642 51.1628 29.4298 50.9932 29.8263 50.7668L29.4865 49.7479C29.147 49.9743 28.751 50.031 28.4679 50.031C27.902 50.031 27.6757 49.6915 27.6757 49.1253V46.6916H29.5997V45.6165ZM39.674 45.5031C38.9949 45.5031 38.5422 45.8429 38.2591 46.2956V45.6165H37.0706V51.0496H38.2591V47.9935C38.2591 47.0881 38.6551 46.5786 39.3909 46.5786C39.6173 46.5786 39.9004 46.6354 40.1267 46.6918L40.4663 45.56C40.2399 45.5033 39.9004 45.5033 39.674 45.5033V45.5031ZM24.4497 46.0692C23.8835 45.673 23.0913 45.5033 22.2423 45.5033C20.8841 45.5033 19.9787 46.1824 19.9787 47.2577C19.9787 48.1634 20.6578 48.6726 21.8463 48.8425L22.4122 48.8992C23.0348 49.0121 23.3743 49.182 23.3743 49.4651C23.3743 49.8611 22.9216 50.1442 22.1291 50.1442C21.3368 50.1442 20.7142 49.8611 20.318 49.5783L19.7521 50.4837C20.3747 50.9365 21.2237 51.1628 22.0724 51.1628C23.6572 51.1628 24.5628 50.4273 24.5628 49.4084C24.5628 48.4462 23.827 47.9368 22.695 47.7672L22.1291 47.7104C21.6197 47.6537 21.2237 47.5408 21.2237 47.2013C21.2237 46.805 21.6197 46.5786 22.2423 46.5786C22.9216 46.5786 23.6007 46.8615 23.9402 47.0314L24.4497 46.0692ZM56.0304 45.5033C55.3511 45.5033 54.8984 45.8429 54.6153 46.2956V45.6165H53.4268V51.0496H54.6153V47.9935C54.6153 47.0881 55.0115 46.5786 55.7471 46.5786C55.9737 46.5786 56.2568 46.6354 56.4831 46.6918L56.8227 45.56C56.5963 45.5033 56.2568 45.5033 56.0304 45.5033ZM40.8625 48.3331C40.8625 49.9743 41.9943 51.1628 43.749 51.1628C44.5413 51.1628 45.1072 50.9932 45.6731 50.5405L45.1072 49.5783C44.6544 49.9178 44.2017 50.0875 43.6923 50.0875C42.7301 50.0875 42.051 49.4084 42.051 48.3331C42.051 47.3144 42.7301 46.6351 43.6923 46.5786C44.2017 46.5786 44.6544 46.7483 45.1072 47.0881L45.6731 46.1259C45.1072 45.673 44.5413 45.5033 43.749 45.5033C41.9943 45.5033 40.8625 46.6918 40.8625 48.3331ZM51.8423 48.3331V45.6165H50.6537V46.2956C50.2575 45.7864 49.6916 45.5033 48.9558 45.5033C47.4277 45.5033 46.2392 46.6918 46.2392 48.3331C46.2392 49.9743 47.4277 51.1628 48.9558 51.1628C49.748 51.1628 50.3142 50.88 50.6537 50.3706V51.0496H51.8423V48.3331ZM47.4842 48.3331C47.4842 47.3709 48.1068 46.5786 49.1254 46.5786C50.0876 46.5786 50.7669 47.3144 50.7669 48.3331C50.7669 49.2952 50.0876 50.0875 49.1254 50.0875C48.1068 50.0308 47.4842 49.2952 47.4842 48.3331ZM33.2787 45.5033C31.6939 45.5033 30.5619 46.6351 30.5619 48.3331C30.5619 50.031 31.6937 51.1628 33.3352 51.1628C34.1274 51.1628 34.92 50.9365 35.5426 50.4273L34.9764 49.5783C34.5237 49.9178 33.9578 50.1442 33.3919 50.1442C32.6561 50.1442 31.9203 49.8047 31.7504 48.8422H35.7689V48.3898C35.8256 46.6351 34.8068 45.5033 33.2785 45.5033H33.2787ZM33.2787 46.5219C34.0143 46.5219 34.5239 46.9749 34.6369 47.8239H31.8071C31.9203 47.0881 32.4297 46.5219 33.2787 46.5219ZM62.7653 48.3331V43.4658H61.5767V46.2956C61.1805 45.7864 60.6146 45.5033 59.8788 45.5033C58.3507 45.5033 57.1622 46.6918 57.1622 48.3331C57.1622 49.9743 58.3507 51.1628 59.8788 51.1628C60.6713 51.1628 61.2372 50.88 61.5767 50.3706V51.0496H62.7653V48.3331ZM58.4074 48.3331C58.4074 47.3709 59.0298 46.5786 60.0487 46.5786C61.0108 46.5786 61.6899 47.3144 61.6899 48.3331C61.6899 49.2952 61.0108 50.0875 60.0487 50.0875C59.0298 50.0308 58.4074 49.2952 58.4074 48.3331ZM18.6767 48.3331V45.6165H17.4882V46.2956C17.092 45.7864 16.5261 45.5033 15.7903 45.5033C14.2622 45.5033 13.0737 46.6918 13.0737 48.3331C13.0737 49.9743 14.2622 51.1628 15.7903 51.1628C16.5828 51.1628 17.1487 50.88 17.4882 50.3706V51.0496H18.6767V48.3331ZM14.2622 48.3331C14.2622 47.3709 14.8848 46.5786 15.9034 46.5786C16.8656 46.5786 17.5449 47.3144 17.5449 48.3331C17.5449 49.2952 16.8656 50.0875 15.9034 50.0875C14.8848 50.0308 14.2622 49.2952 14.2622 48.3331Z" fill="black"/>
<path d="M24.0534 4.35791H41.8811V36.3914H24.0534V4.35791Z" fill="#FF5F00"/>
<path d="M25.1854 20.3747C25.1854 13.8662 28.2416 8.09325 32.9389 4.3578C29.4868 1.64123 25.129 0 20.3749 0C9.11187 0 0 9.11187 0 20.3747C0 31.6372 9.11187 40.7493 20.3747 40.7493C25.1287 40.7493 29.4865 39.1081 32.9389 36.3913C28.2416 32.7125 25.1854 26.8831 25.1854 20.3747Z" fill="#EB001B"/>
<path d="M65.9345 20.3747C65.9345 31.6372 56.8226 40.7493 45.5598 40.7493C40.8058 40.7493 36.448 39.1081 32.9956 36.3913C37.7497 32.6561 40.7493 26.8831 40.7493 20.3747C40.7493 13.8662 37.6929 8.09325 32.9956 4.3578C36.4477 1.64123 40.8058 0 45.5598 0C56.8226 0 65.9348 9.16859 65.9348 20.3747H65.9345Z" fill="#F79E1B"/>
</g>
<defs>
<clipPath id="clip0_21_298">
<rect width="66" height="51.3047" fill="white"/>
</clipPath>
</defs>
</svg>
