<svg width="92" height="78" viewBox="0 0 92 78" fill="none" xmlns="http://www.w3.org/2000/svg">
<path d="M20.125 34.125C14.5667 34.125 9.82292 32.4594 5.89375 29.1281C1.96458 25.7969 0 21.775 0 17.0625C0 12.35 1.96458 8.32813 5.89375 4.99688C9.82292 1.66563 14.5667 0 20.125 0C25.6833 0 30.4271 1.66563 34.3563 4.99688C38.2854 8.32813 40.25 12.35 40.25 17.0625C40.25 21.775 38.2854 25.7969 34.3563 29.1281C30.4271 32.4594 25.6833 34.125 20.125 34.125ZM20.125 24.375C22.5208 24.375 24.5563 23.6633 26.2315 22.2398C27.9105 20.8195 28.75 19.0938 28.75 17.0625C28.75 15.0312 27.9105 13.3055 26.2315 11.8853C24.5563 10.4618 22.5208 9.75 20.125 9.75C17.7292 9.75 15.6937 10.4618 14.0185 11.8853C12.3395 13.3055 11.5 15.0312 11.5 17.0625C11.5 19.0938 12.3395 20.8195 14.0185 22.2398C15.6937 23.6633 17.7292 24.375 20.125 24.375ZM71.875 78C66.3167 78 61.5729 76.3344 57.6437 73.0031C53.7146 69.6719 51.75 65.65 51.75 60.9375C51.75 56.225 53.7146 52.2031 57.6437 48.8719C61.5729 45.5406 66.3167 43.875 71.875 43.875C77.4333 43.875 82.1771 45.5406 86.1063 48.8719C90.0354 52.2031 92 56.225 92 60.9375C92 65.65 90.0354 69.6719 86.1063 73.0031C82.1771 76.3344 77.4333 78 71.875 78ZM71.875 68.25C74.2708 68.25 76.3063 67.5383 77.9815 66.1148C79.6605 64.6945 80.5 62.9688 80.5 60.9375C80.5 58.9062 79.6605 57.1805 77.9815 55.7603C76.3063 54.3368 74.2708 53.625 71.875 53.625C69.4792 53.625 67.4437 54.3368 65.7685 55.7603C64.0895 57.1805 63.25 58.9062 63.25 60.9375C63.25 62.9688 64.0895 64.6945 65.7685 66.1148C67.4437 67.5383 69.4792 68.25 71.875 68.25ZM8.05 78L0 71.175L83.95 0L92 6.825L8.05 78Z" fill="#65350D"/>
</svg>
