<svg width="32" height="25" viewBox="0 0 32 25" fill="none" xmlns="http://www.w3.org/2000/svg">
<path d="M26.118 11.073C26.118 11.073 26.54 13.14 26.635 13.573H24.78L25.669 11.156C25.658 11.173 25.852 10.65 25.963 10.328L26.118 11.073ZM32.001 2.667V22.223C32.0007 22.9303 31.7197 23.6085 31.2196 24.1086C30.7195 24.6087 30.0413 24.8897 29.334 24.89H2.667C1.95975 24.8897 1.28154 24.6087 0.781439 24.1086C0.281337 23.6085 0.000265037 22.9303 0 22.223V2.667C0.000265037 1.95975 0.281337 1.28154 0.781439 0.781439C1.28154 0.281337 1.95975 0.000265037 2.667 0H29.334C30.0413 0.000265037 30.7195 0.281337 31.2196 0.781439C31.7197 1.28154 32.0007 1.95975 32.001 2.667V2.667ZM8.473 16.623L11.984 8.001H9.623L7.44 13.89L7.201 12.696L6.423 8.729C6.295 8.179 5.901 8.023 5.412 8.001H1.818L1.779 8.173C2.60207 8.37492 3.39159 8.6949 4.123 9.123L6.112 16.623H8.473ZM13.718 16.634L15.118 8.001H12.885L11.491 16.634H13.718ZM21.49 13.812C21.501 12.829 20.901 12.079 19.618 11.462C18.835 11.067 18.357 10.801 18.357 10.395C18.368 10.028 18.763 9.65 19.64 9.65C20.2112 9.63389 20.7788 9.74596 21.301 9.978L21.501 10.072L21.807 8.205C21.1686 7.96061 20.4906 7.83619 19.807 7.838C17.601 7.838 16.051 9.016 16.04 10.693C16.023 11.932 17.151 12.621 17.996 13.037C18.857 13.459 19.152 13.737 19.152 14.109C19.141 14.687 18.452 14.953 17.813 14.953C16.924 14.953 16.446 14.814 15.718 14.492L15.424 14.353L15.113 16.292C15.635 16.531 16.602 16.742 17.602 16.753C19.946 16.758 21.474 15.597 21.491 13.809L21.49 13.812ZM29.334 16.634L27.534 8.001H25.806C25.273 8.001 24.867 8.157 24.639 8.718L21.322 16.635H23.666C23.666 16.635 24.049 15.568 24.133 15.341H27C27.067 15.647 27.267 16.635 27.267 16.635L29.334 16.634Z" fill="#699BF7"/>
</svg>
