<svg width="84" height="27" viewBox="0 0 84 27" fill="none" xmlns="http://www.w3.org/2000/svg">
<path d="M24.9851 0.980714L18.0806 18.437L17.4444 20.0455L17.1243 18.3457L14.2783 3.23459L14.2769 3.22705L14.2757 3.21948C14.1779 2.59519 13.8601 2.02644 13.3797 1.6159C12.8993 1.20537 12.2879 0.98008 11.656 0.980714L11.6555 0.980714L1.10715 0.980714C3.21594 1.4998 5.4495 2.23088 6.90219 3.01953L24.9851 0.980714ZM24.9851 0.980714H30.9892L20.4635 26.0924H14.0422L8.75409 5.62738C8.75401 5.62708 8.75393 5.62677 8.75385 5.62646C8.58822 4.97818 8.41892 4.46697 8.13031 4.04471C7.83229 3.60867 7.43719 3.30951 6.90235 3.01962L24.9851 0.980714ZM49.7589 7.70503L49.7589 7.70463C49.7878 6.41122 50.9893 5.302 53.0575 5.03239L53.0662 5.03126L53.0749 5.03043C55.2418 4.82463 57.4228 5.15614 59.4259 5.99127L60.3902 1.48166C58.5455 0.83903 56.6059 0.506965 54.6505 0.5C48.1141 0.50031 43.7713 3.94875 43.7327 8.63951L43.7327 8.64096C43.7137 10.3493 44.4698 11.6892 45.5658 12.772C46.6704 13.8635 48.1 14.6717 49.3669 15.2922C50.6884 15.9338 51.6256 16.4854 52.2323 17.0472C52.8638 17.6321 53.1606 18.2517 53.1519 18.9896C53.1519 18.99 53.1519 18.9904 53.1519 18.9907L52.6519 18.9846L49.7589 7.70503ZM49.7589 7.70503C49.7361 8.76658 50.55 9.50282 51.4411 10.0822C51.9052 10.3841 52.4418 10.6753 52.9982 10.9691C53.1193 11.0331 53.2413 11.0972 53.3642 11.1617C53.8122 11.3968 54.2707 11.6376 54.731 11.8972C57.0865 13.2262 59.236 14.9156 59.2233 18.0665C59.2117 20.622 58.1198 22.7092 56.1912 24.171C54.2505 25.6419 51.4324 26.4996 47.9621 26.5C45.2197 26.4744 42.5899 25.9388 41.0245 25.3156L42.0302 20.611L49.7589 7.70503ZM60.1229 26.0924L69.9659 2.58975L69.9678 2.58514C70.1624 2.10706 70.4962 1.69849 70.9259 1.4124C71.3555 1.12631 71.8612 0.975909 72.3774 0.980692V0.980714H72.382H77.7442L82.9869 26.0924H77.7595L77.0307 22.5892L76.9479 22.191H76.5412H67.8745H67.5236L67.4043 22.521L66.1128 26.0924H60.1229ZM69.3481 17.1701L69.1052 17.8405H69.8182H75.4196H76.0348L75.909 17.2382L73.8607 7.43241L73.5008 5.70944L72.9012 7.36431L69.3481 17.1701ZM40.7753 0.980714L35.4052 26.0924H29.6701L35.0469 0.980714H40.7753Z" fill="#335086" stroke="black"/>
</svg>
